# xmcd
#
# Track frame offsets: 
#        150
#        15365
#        28950
#        41363
#        58333
#        78173
#        111011
#        125054
#        139236
#        155996
#        187956
#        203408
#        221158
#
# Disc length: 3124 seconds
#
# Revision: 0
# Processed by: cddbd v1.4PL0 Copyright (c) Steve Scherf et al.
# Submitted via: ExactAudioCopy v0.95a3
#
DISCID=b70c320d
DTITLE=Mama's Boys - Pinch That Snake
DYEAR=1900
DGENRE=
TTITLE0=Can't Get Even With My Baby
TTITLE1=You're Wrong
TTITLE2=Pinch That Snake
TTITLE3=Bone Dry
TTITLE4=Dynamite
TTITLE5=I'm Depending On You
TTITLE6=Behind the Sun
TTITLE7=Blues Don't Like No One
TTITLE8=Liquor Store
TTITLE9=Sadie
TTITLE10=Told My Baby
TTITLE11=Bassman Mama
TTITLE12=Ocean Front Walk
EXTD=
EXTT0=
EXTT1=
EXTT2=
EXTT3=
EXTT4=
EXTT5=
EXTT6=
EXTT7=
EXTT8=
EXTT9=
EXTT10=
EXTT11=
EXTT12=
PLAYORDER=
